<?xml version="1.0" encoding="utf-8"?>
<!-- Generator: Adobe Illustrator 19.0.0, SVG Export Plug-In . SVG Version: 6.00 Build 0)  -->
<svg version="1.1" id="Layer_1" xmlns="http://www.w3.org/2000/svg" xmlns:xlink="http://www.w3.org/1999/xlink" x="0px" y="0px"
	 viewBox="444 -70 1037 700" style="enable-background:new 444 -70 1037 700;" xml:space="preserve">
<path style="fill:#FFFFFF;" d="M444,568V-8c0-0.7,1-7,3-19l339,290L448,588C445.3,578.7,444,572,444,568z M489-67c4.7-2,10.3-3,17-3
	h913c6,0,12,1,18,3l-340,291l-45,36l-89,73l-89-73l-45-36L489-67z M490,627l341-327l132,107l132-107l341,327c-5.3,2-11,3-17,3H506
	C500.7,630,495.3,629,490,627z M1140,263l338-290c2,6,3,12.3,3,19v576c0,6-1,12.7-3,20L1140,263z"/>
</svg>
