<svg xmlns="http://www.w3.org/2000/svg" viewBox="0 0 458 458"><defs><style>.cls-1{isolation:isolate;}.cls-2{mix-blend-mode:multiply;}.cls-3{fill:#f6f6f6;}.cls-4{fill:#818181;}</style></defs><title>Slide-6-Venn-Diagram</title><g class="cls-1"><g id="Layer_1" data-name="Layer 1"><g class="cls-2"><circle class="cls-3" cx="229" cy="124.74" r="124.74"/></g><g class="cls-2"><circle class="cls-3" cx="229" cy="333.26" r="124.74"/></g><g class="cls-2"><circle class="cls-3" cx="333.26" cy="291.85" r="124.74"/></g><g class="cls-2"><circle class="cls-3" cx="124.74" cy="291.85" r="124.74"/></g><g class="cls-2"><circle class="cls-3" cx="333.26" cy="167.11" r="124.74"/></g><g class="cls-2"><circle class="cls-3" cx="124.74" cy="167.11" r="124.74"/></g><path d="M229.07,224.19v10.5a3.52,3.52,0,0,1-.9,2.66,3.71,3.71,0,0,1-2.66.86q-3.54,0-3.54-3.52v-10.5h2.72v10.56a0.81,0.81,0,0,0,.24.67,0.9,0.9,0,0,0,.58.19,0.86,0.86,0,0,0,.57-0.19,0.83,0.83,0,0,0,.23-0.67V224.19h2.76Z"/><path d="M234.39,234l-1.22,4.08H230l2.88-7.26-2.68-6.66h3.18l1,3.44h0.12l1-3.44h3.2l-2.76,6.66,3,7.26h-3.2L234.47,234h-0.08Z"/><path class="cls-4" d="M210.4,28.44a3.82,3.82,0,0,1,2,.43,2.31,2.31,0,0,1,1,1.45,8.74,8.74,0,0,1,.21,2q0,1.35,0,3.07t0,3a6.79,6.79,0,0,1-.25,1.92,2.63,2.63,0,0,1-1.21,1.62,4,4,0,0,1-1.89.44h-3.48V28.44h3.66Zm0.48,3.81a1.75,1.75,0,0,0-.19-0.89,0.89,0.89,0,0,0-.82-0.31h-0.41v8.72h0.41a0.9,0.9,0,0,0,.82-0.3,1.74,1.74,0,0,0,.19-0.9V32.25Z"/><path class="cls-4" d="M215.64,42.36V28.44H222V31h-3.66v3h3.2v2.6h-3.2v3.16H222v2.6h-6.38Z"/><path class="cls-4" d="M230.44,38.26a8.18,8.18,0,0,1-.17,1.74,3.41,3.41,0,0,1-.58,1.33,2.65,2.65,0,0,1-1.11.85,4.5,4.5,0,0,1-1.76.3,4.34,4.34,0,0,1-1.65-.28,2.91,2.91,0,0,1-1.12-.78,3.1,3.1,0,0,1-.63-1.15,4.74,4.74,0,0,1-.2-1.39l2.74-.52a3,3,0,0,0,.23,1.14,0.84,0.84,0,0,0,1.17.24,0.89,0.89,0,0,0,.26-0.36,1.89,1.89,0,0,0,.12-0.52c0-.2,0-0.4,0-0.6a3.4,3.4,0,0,0-.06-0.7,1.22,1.22,0,0,0-.21-0.48,1.35,1.35,0,0,0-.41-0.35,5.74,5.74,0,0,0-.64-0.31,8,8,0,0,1-1.64-.87,3.68,3.68,0,0,1-.95-1,2.88,2.88,0,0,1-.43-1.08,7.21,7.21,0,0,1-.1-1.25,6,6,0,0,1,.2-1.59,3.29,3.29,0,0,1,.63-1.25,3,3,0,0,1,1.12-.82,4.19,4.19,0,0,1,1.67-.3,3.93,3.93,0,0,1,1.72.33,2.93,2.93,0,0,1,1.07.84,3.15,3.15,0,0,1,.55,1.13,4.81,4.81,0,0,1,.16,1.2l-2.68.58a5,5,0,0,0,0-.56,1.51,1.51,0,0,0-.13-0.47,0.83,0.83,0,0,0-.27-0.33,0.79,0.79,0,0,0-.46-0.12,0.66,0.66,0,0,0-.43.13,0.9,0.9,0,0,0-.25.32,1.44,1.44,0,0,0-.12.43,3.79,3.79,0,0,0,0,.46,2.75,2.75,0,0,0,0,.5,1,1,0,0,0,.2.42,1.83,1.83,0,0,0,.47.39,5.67,5.67,0,0,0,.87.41,6.57,6.57,0,0,1,1.51.8,3.15,3.15,0,0,1,.85.92,3.11,3.11,0,0,1,.38,1.13A10.27,10.27,0,0,1,230.44,38.26Z"/><path class="cls-4" d="M232.1,42.36V28.44h2.72V42.36H232.1Z"/><path class="cls-4" d="M240.54,28.32a4.46,4.46,0,0,1,1.63.27,3.07,3.07,0,0,1,1.14.75,2.75,2.75,0,0,1,.64,1.14,4,4,0,0,1,.13,1.42l-2.64.46a2.11,2.11,0,0,0-.26-1,0.74,0.74,0,0,0-.66-0.41,0.79,0.79,0,0,0-.44.11,0.86,0.86,0,0,0-.26.27,1.1,1.1,0,0,0-.14.35,1.65,1.65,0,0,0,0,.33v7.1a1.15,1.15,0,0,0,.14.54,0.67,0.67,0,0,0,.64.26,1,1,0,0,0,.64-0.21,0.68,0.68,0,0,0,.25-0.55V37H240.4V34.6H244V39a3.47,3.47,0,0,1-.92,2.61,3.59,3.59,0,0,1-2.6.89,3.69,3.69,0,0,1-2.74-.88,3.63,3.63,0,0,1-.86-2.64V32a3.75,3.75,0,0,1,.93-2.66A3.49,3.49,0,0,1,240.54,28.32Z"/><path class="cls-4" d="M250.7,35V28.44h2.66V42.36H251l-1.63-4.06-1-2.64h-0.1v6.7h-2.72V28.44H248l1.64,4L250.6,35h0.1Z"/><path class="cls-4" d="M199.9,421.78a5.64,5.64,0,0,1,1.58.21,3,3,0,0,1,1.24.7,3.29,3.29,0,0,1,.81,1.28,5.65,5.65,0,0,1,.29,1.93,6,6,0,0,1-.38,2.32,3.25,3.25,0,0,1-1.16,1.44l2,6H201.5l-1.64-5.42h-0.54v5.42H196.6V421.78h3.3Zm-0.58,2.6v3.28h0.42a2.14,2.14,0,0,0,.56-0.07,1.07,1.07,0,0,0,.47-0.27,1.36,1.36,0,0,0,.33-0.53,2.6,2.6,0,0,0,.12-0.87,1.55,1.55,0,0,0-.39-1.17,1.41,1.41,0,0,0-1-.37h-0.5Z"/><path class="cls-4" d="M205.52,435.7V421.78h6.38v2.6h-3.66v3h3.2v2.6h-3.2v3.16h3.66v2.6h-6.38Z"/><path class="cls-4" d="M220.32,431.6a8.18,8.18,0,0,1-.17,1.74,3.41,3.41,0,0,1-.58,1.33,2.65,2.65,0,0,1-1.11.85,4.5,4.5,0,0,1-1.76.3,4.34,4.34,0,0,1-1.65-.28,2.91,2.91,0,0,1-1.12-.78,3.1,3.1,0,0,1-.63-1.15,4.74,4.74,0,0,1-.2-1.39l2.74-.52a3,3,0,0,0,.23,1.14,0.84,0.84,0,0,0,1.17.24,0.89,0.89,0,0,0,.26-0.36,1.89,1.89,0,0,0,.12-0.52c0-.2,0-0.4,0-0.6a3.4,3.4,0,0,0-.06-0.7,1.22,1.22,0,0,0-.21-0.48,1.35,1.35,0,0,0-.41-0.35,5.74,5.74,0,0,0-.64-0.31,8,8,0,0,1-1.64-.87,3.68,3.68,0,0,1-.95-1,2.88,2.88,0,0,1-.43-1.08,7.21,7.21,0,0,1-.1-1.25,6,6,0,0,1,.2-1.59,3.3,3.3,0,0,1,.63-1.25,3,3,0,0,1,1.12-.82,4.2,4.2,0,0,1,1.67-.3,3.94,3.94,0,0,1,1.72.33,2.93,2.93,0,0,1,1.07.84,3.15,3.15,0,0,1,.55,1.13,4.81,4.81,0,0,1,.16,1.2l-2.68.58a5,5,0,0,0,0-.56,1.51,1.51,0,0,0-.13-0.47,0.83,0.83,0,0,0-.27-0.33,0.79,0.79,0,0,0-.46-0.12,0.66,0.66,0,0,0-.43.13,0.9,0.9,0,0,0-.25.32,1.44,1.44,0,0,0-.12.43,3.79,3.79,0,0,0,0,.46,2.75,2.75,0,0,0,0,.5,1,1,0,0,0,.2.42,1.83,1.83,0,0,0,.47.39,5.67,5.67,0,0,0,.87.41,6.57,6.57,0,0,1,1.51.8,3.15,3.15,0,0,1,.85.92,3.12,3.12,0,0,1,.38,1.13A10.27,10.27,0,0,1,220.32,431.6Z"/><path class="cls-4" d="M221.94,435.7V421.78h6.38v2.6h-3.66v3h3.2v2.6h-3.2v3.16h3.66v2.6h-6.38Z"/><path class="cls-4" d="M234.32,433h-2l-0.42,2.72H229l2.64-13.92h3.32l2.66,13.92h-2.86Zm-1.38-4.78-0.28,2.22h1.26l-0.26-2.22-0.3-2.82h-0.12Z"/><path class="cls-4" d="M242.1,421.78a5.64,5.64,0,0,1,1.58.21,3,3,0,0,1,1.24.7,3.28,3.28,0,0,1,.81,1.28,5.64,5.64,0,0,1,.29,1.93,6,6,0,0,1-.38,2.32,3.26,3.26,0,0,1-1.16,1.44l2,6H243.7l-1.64-5.42h-0.54v5.42H238.8V421.78h3.3Zm-0.58,2.6v3.28h0.42a2.13,2.13,0,0,0,.56-0.07,1.07,1.07,0,0,0,.47-0.27,1.35,1.35,0,0,0,.33-0.53,2.6,2.6,0,0,0,.12-0.87,1.55,1.55,0,0,0-.39-1.17,1.41,1.41,0,0,0-1-.37h-0.5Z"/><path class="cls-4" d="M251.22,421.66a3.61,3.61,0,0,1,2.69.89,3.16,3.16,0,0,1,.87,2.31V425a0.94,0.94,0,0,1,0,.19l-2.62.46a2.1,2.1,0,0,0-.27-1,0.75,0.75,0,0,0-.66-0.41,0.8,0.8,0,0,0-.45.11,0.85,0.85,0,0,0-.27.27,1.06,1.06,0,0,0-.14.35,1.65,1.65,0,0,0,0,.33v7.1a1.12,1.12,0,0,0,.14.54,0.68,0.68,0,0,0,.66.26,0.76,0.76,0,0,0,.65-0.36,2,2,0,0,0,.27-1.08l2.69,0.36a3.93,3.93,0,0,1-.92,2.67,3.3,3.3,0,0,1-2.6,1,3.69,3.69,0,0,1-2.74-.88,3.64,3.64,0,0,1-.86-2.64v-7a3.85,3.85,0,0,1,.89-2.66A3.47,3.47,0,0,1,251.22,421.66Z"/><path class="cls-4" d="M260.72,435.7v-5.76H259v5.76h-2.72V421.78H259v5.52h1.74v-5.52h2.72V435.7h-2.72Z"/><path class="cls-4" d="M30.29,121.7V107.78H33V121.7H30.29Z"/><path class="cls-4" d="M40.09,114.36v-6.58h2.66V121.7H40.44l-1.63-4.06-1-2.64h-0.1v6.7H35V107.78h2.38l1.64,4L40,114.36h0.1Z"/><path class="cls-4" d="M48.63,110.38V121.7H45.91V110.38H43.77v-2.6h7v2.6H48.63Z"/><path class="cls-4" d="M51.9,121.7V107.78h6.38v2.6H54.63v3h3.2v2.6h-3.2v3.16h3.66v2.6H51.9Z"/><path class="cls-4" d="M63.09,107.78a5.63,5.63,0,0,1,1.58.21,3,3,0,0,1,1.24.7,3.28,3.28,0,0,1,.81,1.28A5.64,5.64,0,0,1,67,111.9a6,6,0,0,1-.38,2.32,3.26,3.26,0,0,1-1.16,1.44l2,6H64.69L63,116.28H62.51v5.42H59.78V107.78h3.3Zm-0.58,2.6v3.28h0.42a2.13,2.13,0,0,0,.56-0.07,1.07,1.07,0,0,0,.47-0.27,1.35,1.35,0,0,0,.33-0.53,2.6,2.6,0,0,0,.12-0.87,1.55,1.55,0,0,0-.39-1.17,1.41,1.41,0,0,0-1-.37h-0.5Z"/><path class="cls-4" d="M71.43,110.38v3h3.2v2.6h-3.2v5.76H68.7V107.78h6.38v2.6H71.43Z"/><path class="cls-4" d="M80.28,119h-2l-0.42,2.72H74.94l2.64-13.92H80.9l2.66,13.92H80.71ZM78.9,114.2l-0.28,2.22h1.26l-0.26-2.22-0.3-2.82H79.21Z"/><path class="cls-4" d="M88.26,107.66a3.62,3.62,0,0,1,2.69.89,3.16,3.16,0,0,1,.87,2.31V111a0.94,0.94,0,0,1,0,.19l-2.62.46a2.1,2.1,0,0,0-.27-1,0.75,0.75,0,0,0-.66-0.41,0.8,0.8,0,0,0-.45.11,0.85,0.85,0,0,0-.27.27,1.06,1.06,0,0,0-.14.35,1.65,1.65,0,0,0,0,.33v7.1a1.12,1.12,0,0,0,.14.54,0.68,0.68,0,0,0,.66.26,0.76,0.76,0,0,0,.65-0.36,2,2,0,0,0,.27-1.08l2.69,0.36a3.93,3.93,0,0,1-.92,2.67,3.3,3.3,0,0,1-2.6,1,3.69,3.69,0,0,1-2.74-.88,3.64,3.64,0,0,1-.86-2.64v-7a3.85,3.85,0,0,1,.89-2.66A3.47,3.47,0,0,1,88.26,107.66Z"/><path class="cls-4" d="M93.3,121.7V107.78h6.38v2.6H96v3h3.2v2.6H96v3.16h3.66v2.6H93.3Z"/><path class="cls-4" d="M33.93,127.78a3.82,3.82,0,0,1,2,.43,2.31,2.31,0,0,1,1,1.45,8.74,8.74,0,0,1,.21,2q0,1.35,0,3.07t0,3a6.79,6.79,0,0,1-.25,1.92,2.63,2.63,0,0,1-1.21,1.62,4,4,0,0,1-1.89.44H30.27V127.78h3.66Zm0.48,3.81a1.75,1.75,0,0,0-.19-0.89,0.89,0.89,0,0,0-.82-0.31H33v8.72H33.4a0.9,0.9,0,0,0,.82-0.3,1.74,1.74,0,0,0,.19-0.9v-6.31Z"/><path class="cls-4" d="M39.17,141.7V127.78h6.38v2.6H41.89v3h3.2v2.6h-3.2v3.16h3.66v2.6H39.17Z"/><path class="cls-4" d="M54,137.6a8.18,8.18,0,0,1-.17,1.74,3.41,3.41,0,0,1-.58,1.33,2.65,2.65,0,0,1-1.11.85,4.5,4.5,0,0,1-1.76.3,4.34,4.34,0,0,1-1.65-.28,2.91,2.91,0,0,1-1.12-.78,3.1,3.1,0,0,1-.63-1.15,4.74,4.74,0,0,1-.2-1.39l2.74-.52a3,3,0,0,0,.23,1.14,0.84,0.84,0,0,0,1.17.24,0.89,0.89,0,0,0,.26-0.36,1.89,1.89,0,0,0,.12-0.52c0-.2,0-0.4,0-0.6a3.4,3.4,0,0,0-.06-0.7,1.22,1.22,0,0,0-.21-0.48,1.35,1.35,0,0,0-.41-0.35,5.74,5.74,0,0,0-.64-0.31,8,8,0,0,1-1.64-.87,3.68,3.68,0,0,1-.95-1,2.88,2.88,0,0,1-.43-1.08,7.21,7.21,0,0,1-.1-1.25A6,6,0,0,1,47,130a3.29,3.29,0,0,1,.63-1.25A2.94,2.94,0,0,1,48.8,128a4.18,4.18,0,0,1,1.67-.3,3.94,3.94,0,0,1,1.72.33,2.93,2.93,0,0,1,1.07.84,3.15,3.15,0,0,1,.55,1.13,4.81,4.81,0,0,1,.16,1.2l-2.68.58a5,5,0,0,0,0-.56,1.51,1.51,0,0,0-.13-0.47,0.83,0.83,0,0,0-.27-0.33,0.79,0.79,0,0,0-.46-0.12,0.66,0.66,0,0,0-.43.13,0.9,0.9,0,0,0-.25.32,1.44,1.44,0,0,0-.12.43,3.79,3.79,0,0,0,0,.46,2.75,2.75,0,0,0,0,.5,1,1,0,0,0,.2.42,1.83,1.83,0,0,0,.47.39,5.67,5.67,0,0,0,.87.41,6.57,6.57,0,0,1,1.51.8,3.15,3.15,0,0,1,.85.92,3.12,3.12,0,0,1,.38,1.13A10.27,10.27,0,0,1,54,137.6Z"/><path class="cls-4" d="M55.63,141.7V127.78h2.72V141.7H55.63Z"/><path class="cls-4" d="M64.07,127.66a4.45,4.45,0,0,1,1.63.27,3.05,3.05,0,0,1,1.14.75,2.74,2.74,0,0,1,.64,1.14,4,4,0,0,1,.13,1.42L65,131.7a2.11,2.11,0,0,0-.26-1,0.74,0.74,0,0,0-.66-0.41,0.79,0.79,0,0,0-.44.11,0.86,0.86,0,0,0-.26.27,1.1,1.1,0,0,0-.14.35,1.65,1.65,0,0,0,0,.33v7.1a1.15,1.15,0,0,0,.14.54,0.67,0.67,0,0,0,.64.26,1,1,0,0,0,.64-0.21,0.68,0.68,0,0,0,.25-0.55v-2.14H63.93v-2.38h3.64v4.38a3.47,3.47,0,0,1-.92,2.61,3.59,3.59,0,0,1-2.6.89,3.69,3.69,0,0,1-2.74-.88,3.63,3.63,0,0,1-.86-2.64v-7a3.75,3.75,0,0,1,.93-2.66A3.49,3.49,0,0,1,64.07,127.66Z"/><path class="cls-4" d="M74.23,134.36v-6.58h2.66V141.7H74.57l-1.63-4.06L72,135h-0.1v6.7H69.17V127.78h2.38l1.64,4,0.94,2.54h0.1Z"/><path class="cls-4" d="M335.62,121.7V107.78h2.72V121.7h-2.72Z"/><path class="cls-4" d="M345.42,114.36v-6.58h2.66V121.7h-2.31l-1.63-4.06-1-2.64h-0.1v6.7h-2.72V107.78h2.38l1.64,4,0.94,2.54h0.1Z"/><path class="cls-4" d="M352.76,110.38v3H356v2.6h-3.2v5.76H350V107.78h6.38v2.6h-3.66Z"/><path class="cls-4" d="M364.9,118.3A3.52,3.52,0,0,1,364,121a3.71,3.71,0,0,1-2.66.86q-3.54,0-3.54-3.52v-7.14a3.4,3.4,0,0,1,.94-2.65,4.54,4.54,0,0,1,5.29,0,3.56,3.56,0,0,1,.87,2.65v7.14Zm-2.76-7.24a0.75,0.75,0,0,0-.8-0.86,0.87,0.87,0,0,0-.58.2,0.81,0.81,0,0,0-.24.66v7.36a0.81,0.81,0,0,0,.24.67,0.9,0.9,0,0,0,.58.19,0.86,0.86,0,0,0,.57-0.19,0.83,0.83,0,0,0,.23-0.67v-7.36Z"/><path class="cls-4" d="M370.12,107.78a5.63,5.63,0,0,1,1.58.21,3,3,0,0,1,1.24.7,3.28,3.28,0,0,1,.81,1.28,5.64,5.64,0,0,1,.29,1.93,6,6,0,0,1-.38,2.32,3.26,3.26,0,0,1-1.16,1.44l2,6h-2.78l-1.64-5.42h-0.54v5.42h-2.72V107.78h3.3Zm-0.58,2.6v3.28H370a2.13,2.13,0,0,0,.56-0.07,1.07,1.07,0,0,0,.47-0.27,1.35,1.35,0,0,0,.33-0.53,2.6,2.6,0,0,0,.12-0.87,1.55,1.55,0,0,0-.39-1.17,1.41,1.41,0,0,0-1-.37h-0.5Z"/><path class="cls-4" d="M379.65,119l-0.58-1.78-0.64-2.06h-0.1v6.56h-2.72V107.78h2.54l1.38,3.72,0.94,2.76h0.12l1-2.82,1.36-3.66h2.54V121.7h-2.72v-6.5h-0.08L382,117.36,381.46,119h-1.81Z"/><path class="cls-4" d="M391.88,119h-2l-0.42,2.72h-2.88l2.64-13.92h3.32l2.66,13.92H392.3Zm-1.38-4.78-0.28,2.22h1.26l-0.26-2.22-0.3-2.82H390.8Z"/><path class="cls-4" d="M399.68,110.38V121.7H397V110.38h-2.14v-2.6h7v2.6h-2.14Z"/><path class="cls-4" d="M403,121.7V107.78h2.72V121.7H403Z"/><path class="cls-4" d="M414.78,118.3a3.52,3.52,0,0,1-.9,2.66,3.71,3.71,0,0,1-2.66.86q-3.54,0-3.54-3.52v-7.14a3.4,3.4,0,0,1,.94-2.65,4.54,4.54,0,0,1,5.29,0,3.56,3.56,0,0,1,.87,2.65v7.14ZM412,111.06a0.75,0.75,0,0,0-.8-0.86,0.87,0.87,0,0,0-.58.2,0.81,0.81,0,0,0-.24.66v7.36a0.81,0.81,0,0,0,.24.67,0.9,0.9,0,0,0,.58.19,0.86,0.86,0,0,0,.57-0.19,0.83,0.83,0,0,0,.23-0.67v-7.36Z"/><path class="cls-4" d="M421.7,114.36v-6.58h2.66V121.7H422l-1.63-4.06-1-2.64h-0.1v6.7h-2.72V107.78H419l1.64,4,0.94,2.54h0.1Z"/><path class="cls-4" d="M340.08,139h-2l-0.42,2.72h-2.88l2.64-13.92h3.32l2.66,13.92H340.5Zm-1.38-4.78-0.28,2.22h1.26l-0.26-2.22-0.3-2.82H339Z"/><path class="cls-4" d="M347.86,127.78a5.64,5.64,0,0,1,1.58.21,3,3,0,0,1,1.24.7,3.29,3.29,0,0,1,.81,1.28,5.66,5.66,0,0,1,.29,1.93,6,6,0,0,1-.38,2.32,3.25,3.25,0,0,1-1.16,1.44l2,6h-2.78l-1.64-5.42h-0.54v5.42h-2.72V127.78h3.3Zm-0.58,2.6v3.28h0.42a2.14,2.14,0,0,0,.56-0.07,1.07,1.07,0,0,0,.47-0.27,1.36,1.36,0,0,0,.33-0.53,2.6,2.6,0,0,0,.12-0.87,1.55,1.55,0,0,0-.39-1.17,1.41,1.41,0,0,0-1-.37h-0.5Z"/><path class="cls-4" d="M357,127.66a3.62,3.62,0,0,1,2.69.89,3.17,3.17,0,0,1,.87,2.31V131a0.94,0.94,0,0,1,0,.19l-2.62.46a2.11,2.11,0,0,0-.27-1,0.75,0.75,0,0,0-.66-0.41,0.8,0.8,0,0,0-.45.11,0.83,0.83,0,0,0-.27.27,1,1,0,0,0-.14.35,1.58,1.58,0,0,0,0,.33v7.1a1.11,1.11,0,0,0,.14.54,0.68,0.68,0,0,0,.66.26,0.76,0.76,0,0,0,.65-0.36,2,2,0,0,0,.27-1.08l2.69,0.36a3.92,3.92,0,0,1-.92,2.67,3.3,3.3,0,0,1-2.6,1,3.7,3.7,0,0,1-2.74-.88,3.64,3.64,0,0,1-.86-2.64v-7a3.85,3.85,0,0,1,.89-2.66A3.46,3.46,0,0,1,357,127.66Z"/><path class="cls-4" d="M366.48,141.7v-5.76h-1.74v5.76H362V127.78h2.72v5.52h1.74v-5.52h2.72V141.7h-2.72Z"/><path class="cls-4" d="M371.24,141.7V127.78H374V141.7h-2.72Z"/><path class="cls-4" d="M380,130.38V141.7h-2.72V130.38H375.1v-2.6h7v2.6H380Z"/><path class="cls-4" d="M383.24,141.7V127.78h6.38v2.6H386v3h3.2v2.6H386v3.16h3.66v2.6h-6.38Z"/><path class="cls-4" d="M394.62,127.66a3.62,3.62,0,0,1,2.69.89,3.17,3.17,0,0,1,.87,2.31V131a0.94,0.94,0,0,1,0,.19l-2.62.46a2.1,2.1,0,0,0-.27-1,0.75,0.75,0,0,0-.66-0.41,0.8,0.8,0,0,0-.45.11,0.85,0.85,0,0,0-.27.27,1.06,1.06,0,0,0-.14.35,1.65,1.65,0,0,0,0,.33v7.1a1.12,1.12,0,0,0,.14.54,0.68,0.68,0,0,0,.66.26,0.76,0.76,0,0,0,.65-0.36,2,2,0,0,0,.27-1.08l2.69,0.36a3.93,3.93,0,0,1-.92,2.67,3.3,3.3,0,0,1-2.6,1,3.69,3.69,0,0,1-2.74-.88,3.64,3.64,0,0,1-.86-2.64v-7a3.85,3.85,0,0,1,.89-2.66A3.47,3.47,0,0,1,394.62,127.66Z"/><path class="cls-4" d="M403.58,130.38V141.7h-2.72V130.38h-2.14v-2.6h7v2.6h-2.14Z"/><path class="cls-4" d="M413.86,127.8v10.5A3.53,3.53,0,0,1,413,141a3.71,3.71,0,0,1-2.66.86q-3.54,0-3.54-3.52V127.8h2.72v10.56a0.81,0.81,0,0,0,.24.67,0.9,0.9,0,0,0,.58.19,0.86,0.86,0,0,0,.57-0.19,0.83,0.83,0,0,0,.23-0.67V127.8h2.76Z"/><path class="cls-4" d="M419.06,127.78a5.64,5.64,0,0,1,1.58.21,3,3,0,0,1,1.24.7,3.27,3.27,0,0,1,.81,1.28,5.64,5.64,0,0,1,.29,1.93,6,6,0,0,1-.38,2.32,3.26,3.26,0,0,1-1.16,1.44l2,6h-2.78L419,136.28h-0.54v5.42h-2.72V127.78h3.3Zm-0.58,2.6v3.28h0.42a2.13,2.13,0,0,0,.56-0.07,1.07,1.07,0,0,0,.47-0.27,1.35,1.35,0,0,0,.33-0.53,2.6,2.6,0,0,0,.12-0.87,1.55,1.55,0,0,0-.39-1.17,1.41,1.41,0,0,0-1-.37h-0.5Z"/><path class="cls-4" d="M424.68,141.7V127.78h6.38v2.6H427.4v3h3.2v2.6h-3.2v3.16h3.66v2.6h-6.38Z"/><path class="cls-4" d="M345.58,308.46V319a3.53,3.53,0,0,1-.9,2.66,3.71,3.71,0,0,1-2.66.86q-3.54,0-3.54-3.52v-10.5h2.72V319a0.81,0.81,0,0,0,.24.67,0.9,0.9,0,0,0,.58.19,0.87,0.87,0,0,0,.57-0.19,0.83,0.83,0,0,0,.23-0.67V308.46h2.76Z"/><path class="cls-4" d="M354.4,318.26a8.19,8.19,0,0,1-.17,1.74,3.41,3.41,0,0,1-.58,1.33,2.65,2.65,0,0,1-1.11.85,4.5,4.5,0,0,1-1.76.3,4.35,4.35,0,0,1-1.65-.28,2.92,2.92,0,0,1-1.12-.78,3.11,3.11,0,0,1-.63-1.15,4.76,4.76,0,0,1-.2-1.39l2.74-.52a3,3,0,0,0,.23,1.14,0.84,0.84,0,0,0,1.17.24,0.88,0.88,0,0,0,.26-0.36,1.82,1.82,0,0,0,.12-0.52c0-.2,0-0.4,0-0.6a3.48,3.48,0,0,0-.06-0.7,1.23,1.23,0,0,0-.21-0.48,1.33,1.33,0,0,0-.41-0.35,5.66,5.66,0,0,0-.64-0.31,8,8,0,0,1-1.64-.87,3.67,3.67,0,0,1-1-1,2.89,2.89,0,0,1-.43-1.08,7.26,7.26,0,0,1-.1-1.25,6,6,0,0,1,.2-1.59,3.29,3.29,0,0,1,.63-1.25,3,3,0,0,1,1.12-.82,4.17,4.17,0,0,1,1.67-.3,3.92,3.92,0,0,1,1.72.33,2.92,2.92,0,0,1,1.07.84,3.13,3.13,0,0,1,.55,1.13,4.81,4.81,0,0,1,.16,1.2l-2.68.58a5,5,0,0,0,0-.56,1.5,1.5,0,0,0-.13-0.47,0.83,0.83,0,0,0-.27-0.33,0.79,0.79,0,0,0-.46-0.12,0.66,0.66,0,0,0-.44.13,0.91,0.91,0,0,0-.25.32,1.41,1.41,0,0,0-.12.43,3.79,3.79,0,0,0,0,.46,2.85,2.85,0,0,0,0,.5,1,1,0,0,0,.2.42,1.79,1.79,0,0,0,.47.39,5.66,5.66,0,0,0,.87.41,6.6,6.6,0,0,1,1.51.8,2.92,2.92,0,0,1,1.22,2A10.27,10.27,0,0,1,354.4,318.26Z"/><path class="cls-4" d="M360.52,319.64h-2l-0.42,2.72h-2.88l2.64-13.92h3.32l2.66,13.92h-2.86Zm-1.38-4.78-0.28,2.22h1.26l-0.26-2.22-0.3-2.82h-0.12Z"/><path class="cls-4" d="M370.34,315.08a2.07,2.07,0,0,1,.79.46,2.47,2.47,0,0,1,.5.69,3.2,3.2,0,0,1,.27.85,5.55,5.55,0,0,1,.08.94,4.7,4.7,0,0,1-1,3.29,3.8,3.8,0,0,1-2.92,1H365V308.44h3.14a3.67,3.67,0,0,1,2.79,1,4.06,4.06,0,0,1,.93,2.9,3.89,3.89,0,0,1-.09.83,3.25,3.25,0,0,1-.27.77,2.31,2.31,0,0,1-.47.64,1.86,1.86,0,0,1-.69.42v0.1Zm-1.08-2.68a1.47,1.47,0,0,0-.3-1.09,1.41,1.41,0,0,0-1-.27h-0.28v2.76h0.34A1.16,1.16,0,0,0,369.26,312.4Zm0.12,5.45a1.87,1.87,0,0,0-.29-1.19,1.08,1.08,0,0,0-.87-0.34h-0.5v3.44h0.48a1.1,1.1,0,0,0,.61-0.15,1,1,0,0,0,.36-0.41,1.86,1.86,0,0,0,.17-0.6A6.51,6.51,0,0,0,369.38,317.85Z"/><path class="cls-4" d="M374,322.36V308.44h2.72v13.92H374Z"/><path class="cls-4" d="M378.76,322.36V308.44h2.72v11.32h3.66v2.6h-6.38Z"/><path class="cls-4" d="M386.36,322.36V308.44h2.72v13.92h-2.72Z"/><path class="cls-4" d="M395.08,311v11.32h-2.72V311h-2.14v-2.6h7V311h-2.14Z"/><path class="cls-4" d="M401.57,313.52l0.5-2.34,0.6-2.74h2.88l-2.7,8.26v5.66h-2.72V316.7l-2.72-8.26h2.9l0.67,2.78,0.5,2.3h0.1Z"/><path class="cls-4" d="M338.58,342.36V328.44H345V331H341.3v3h3.2v2.6h-3.2v3.16H345v2.6h-6.38Z"/><path class="cls-4" d="M351.46,335v-6.58h2.66v13.92h-2.31l-1.63-4.06-1-2.64h-0.1v6.7H346.4V328.44h2.38l1.64,4,0.94,2.54h0.1Z"/><path class="cls-4" d="M359.72,328.32a4.46,4.46,0,0,1,1.63.27,3.05,3.05,0,0,1,1.14.75,2.74,2.74,0,0,1,.64,1.14,4,4,0,0,1,.13,1.42l-2.64.46a2.14,2.14,0,0,0-.26-1,0.74,0.74,0,0,0-.66-0.41,0.78,0.78,0,0,0-.44.11,0.87,0.87,0,0,0-.27.27,1.13,1.13,0,0,0-.14.35,1.73,1.73,0,0,0,0,.33v7.1a1.16,1.16,0,0,0,.14.54,0.67,0.67,0,0,0,.64.26,1,1,0,0,0,.64-0.21,0.68,0.68,0,0,0,.26-0.55V337h-0.92V334.6h3.64V339a3.47,3.47,0,0,1-.92,2.61,3.59,3.59,0,0,1-2.6.89,3.69,3.69,0,0,1-2.74-.88,3.63,3.63,0,0,1-.86-2.64v-7a3.75,3.75,0,0,1,.93-2.66A3.49,3.49,0,0,1,359.72,328.32Z"/><path class="cls-4" d="M364.92,342.36V328.44h2.72v13.92h-2.72Z"/><path class="cls-4" d="M374.72,335v-6.58h2.66v13.92h-2.31l-1.63-4.06-1-2.64h-0.1v6.7h-2.72V328.44H372l1.64,4,0.94,2.54h0.1Z"/><path class="cls-4" d="M379.34,342.36V328.44h6.38V331h-3.66v3h3.2v2.6h-3.2v3.16h3.66v2.6h-6.38Z"/><path class="cls-4" d="M387.22,342.36V328.44h6.38V331h-3.66v3h3.2v2.6h-3.2v3.16h3.66v2.6h-6.38Z"/><path class="cls-4" d="M398.4,328.44a5.64,5.64,0,0,1,1.58.21,3,3,0,0,1,1.24.7,3.27,3.27,0,0,1,.81,1.28,5.64,5.64,0,0,1,.29,1.93,6,6,0,0,1-.38,2.32,3.26,3.26,0,0,1-1.16,1.44l2,6H400l-1.64-5.42h-0.54v5.42H395.1V328.44h3.3Zm-0.58,2.6v3.28h0.42a2.13,2.13,0,0,0,.56-0.07,1.07,1.07,0,0,0,.47-0.27,1.35,1.35,0,0,0,.33-0.53,2.6,2.6,0,0,0,.12-0.87,1.55,1.55,0,0,0-.39-1.17,1.41,1.41,0,0,0-1-.37h-0.5Z"/><path class="cls-4" d="M404.06,342.36V328.44h2.72v13.92h-2.72Z"/><path class="cls-4" d="M413.86,335v-6.58h2.66v13.92h-2.31l-1.63-4.06-1-2.64h-0.1v6.7H408.8V328.44h2.38l1.64,4,0.94,2.54h0.1Z"/><path class="cls-4" d="M422.12,328.32a4.45,4.45,0,0,1,1.63.27,3.05,3.05,0,0,1,1.14.75,2.74,2.74,0,0,1,.64,1.14,4,4,0,0,1,.13,1.42l-2.64.46a2.11,2.11,0,0,0-.26-1,0.74,0.74,0,0,0-.66-0.41,0.79,0.79,0,0,0-.44.11,0.86,0.86,0,0,0-.26.27,1.1,1.1,0,0,0-.14.35,1.65,1.65,0,0,0,0,.33v7.1a1.15,1.15,0,0,0,.14.54,0.67,0.67,0,0,0,.64.26,1,1,0,0,0,.64-0.21,0.68,0.68,0,0,0,.25-0.55V337H422V334.6h3.64V339a3.47,3.47,0,0,1-.92,2.61,3.59,3.59,0,0,1-2.6.89,3.69,3.69,0,0,1-2.74-.88,3.63,3.63,0,0,1-.86-2.64v-7a3.75,3.75,0,0,1,.93-2.66A3.49,3.49,0,0,1,422.12,328.32Z"/><path class="cls-4" d="M36.75,308.32a3.62,3.62,0,0,1,2.69.89,3.17,3.17,0,0,1,.87,2.31v0.19a1,1,0,0,1,0,.19l-2.62.46a2.1,2.1,0,0,0-.27-1,0.75,0.75,0,0,0-.66-0.41,0.8,0.8,0,0,0-.45.11,0.86,0.86,0,0,0-.27.27,1.07,1.07,0,0,0-.14.35,1.69,1.69,0,0,0,0,.33v7.1a1.12,1.12,0,0,0,.14.54,0.68,0.68,0,0,0,.66.26,0.76,0.76,0,0,0,.65-0.36,2,2,0,0,0,.27-1.08l2.69,0.36a3.94,3.94,0,0,1-.92,2.67,3.3,3.3,0,0,1-2.6,1A3.7,3.7,0,0,1,34,321.6a3.64,3.64,0,0,1-.86-2.64v-7a3.85,3.85,0,0,1,.89-2.66A3.47,3.47,0,0,1,36.75,308.32Z"/><path class="cls-4" d="M48.77,319a3.52,3.52,0,0,1-.9,2.66,3.71,3.71,0,0,1-2.66.86q-3.54,0-3.54-3.52v-7.14a3.4,3.4,0,0,1,.94-2.65,3.74,3.74,0,0,1,2.6-.85,3.72,3.72,0,0,1,2.69.85,3.56,3.56,0,0,1,.87,2.65V319ZM46,311.72a0.75,0.75,0,0,0-.8-0.86,0.87,0.87,0,0,0-.58.2,0.81,0.81,0,0,0-.24.66v7.36a0.81,0.81,0,0,0,.24.67,0.9,0.9,0,0,0,.58.19,0.86,0.86,0,0,0,.57-0.19,0.83,0.83,0,0,0,.23-0.67v-7.36Z"/><path class="cls-4" d="M55.69,315v-6.58h2.66v13.92H56L54.4,318.3l-1-2.64h-0.1v6.7H50.63V308.44H53l1.64,4L55.59,315h0.1Z"/><path class="cls-4" d="M64.23,311v11.32H61.51V311H59.37v-2.6h7V311H64.23Z"/><path class="cls-4" d="M67.5,322.36V308.44h6.38V311H70.23v3h3.2v2.6h-3.2v3.16h3.66v2.6H67.5Z"/><path class="cls-4" d="M80.38,315v-6.58H83v13.92H80.73L79.1,318.3l-1-2.64H78v6.7H75.32V308.44H77.7l1.64,4L80.28,315h0.1Z"/><path class="cls-4" d="M88.93,311v11.32H86.2V311H84.06v-2.6h7V311H88.93Z"/><path class="cls-4" d="M40.17,338.26A8.19,8.19,0,0,1,40,340a3.41,3.41,0,0,1-.58,1.33,2.65,2.65,0,0,1-1.11.85,4.5,4.5,0,0,1-1.76.3,4.34,4.34,0,0,1-1.65-.28,2.92,2.92,0,0,1-1.12-.78,3.1,3.1,0,0,1-.63-1.15,4.74,4.74,0,0,1-.2-1.39l2.74-.52a3,3,0,0,0,.23,1.14,0.84,0.84,0,0,0,1.17.24,0.88,0.88,0,0,0,.26-0.36,1.87,1.87,0,0,0,.12-0.52c0-.2,0-0.4,0-0.6a3.4,3.4,0,0,0-.06-0.7,1.22,1.22,0,0,0-.21-0.48,1.34,1.34,0,0,0-.41-0.35,5.67,5.67,0,0,0-.64-0.31,8,8,0,0,1-1.64-.87,3.68,3.68,0,0,1-.95-1,2.88,2.88,0,0,1-.43-1.08,7.21,7.21,0,0,1-.1-1.25,6,6,0,0,1,.2-1.59,3.3,3.3,0,0,1,.63-1.25,3,3,0,0,1,1.12-.82,4.17,4.17,0,0,1,1.67-.3,3.94,3.94,0,0,1,1.72.33,2.92,2.92,0,0,1,1.07.84,3.12,3.12,0,0,1,.55,1.13,4.79,4.79,0,0,1,.16,1.2l-2.68.58a5,5,0,0,0,0-.56,1.52,1.52,0,0,0-.13-0.47,0.83,0.83,0,0,0-.27-0.33,0.79,0.79,0,0,0-.46-0.12,0.66,0.66,0,0,0-.43.13,0.91,0.91,0,0,0-.25.32,1.42,1.42,0,0,0-.12.43,3.7,3.7,0,0,0,0,.46,2.84,2.84,0,0,0,0,.5,0.94,0.94,0,0,0,.2.42,1.81,1.81,0,0,0,.47.39,5.63,5.63,0,0,0,.87.41,6.57,6.57,0,0,1,1.51.8,2.92,2.92,0,0,1,1.22,2A10.2,10.2,0,0,1,40.17,338.26Z"/><path class="cls-4" d="M45.71,331v11.32H43V331H40.85v-2.6h7V331H45.71Z"/><path class="cls-4" d="M52.29,328.44a5.64,5.64,0,0,1,1.58.21,3,3,0,0,1,1.24.7,3.27,3.27,0,0,1,.81,1.28,5.64,5.64,0,0,1,.29,1.93,6,6,0,0,1-.38,2.32,3.26,3.26,0,0,1-1.16,1.44l2,6H53.89l-1.64-5.42H51.71v5.42H49V328.44h3.3ZM51.71,331v3.28h0.42a2.13,2.13,0,0,0,.56-0.07,1.07,1.07,0,0,0,.47-0.27,1.35,1.35,0,0,0,.33-0.53,2.6,2.6,0,0,0,.12-0.87,1.55,1.55,0,0,0-.39-1.17,1.41,1.41,0,0,0-1-.37h-0.5Z"/><path class="cls-4" d="M62.4,339.64h-2l-0.42,2.72H57.06l2.64-13.92H63l2.66,13.92H62.83ZM61,334.86l-0.28,2.22H62l-0.26-2.22L61.44,332H61.33Z"/><path class="cls-4" d="M70.21,331v11.32H67.48V331H65.35v-2.6h7V331H70.21Z"/><path class="cls-4" d="M73.48,342.36V328.44h6.38V331H76.21v3h3.2v2.6h-3.2v3.16h3.66v2.6H73.48Z"/><path class="cls-4" d="M85,328.32a4.45,4.45,0,0,1,1.63.27,3.05,3.05,0,0,1,1.14.75,2.74,2.74,0,0,1,.64,1.14,4,4,0,0,1,.13,1.42l-2.64.46a2.11,2.11,0,0,0-.26-1,0.74,0.74,0,0,0-.66-0.41,0.79,0.79,0,0,0-.44.11,0.86,0.86,0,0,0-.26.27,1.1,1.1,0,0,0-.14.35,1.65,1.65,0,0,0,0,.33v7.1a1.15,1.15,0,0,0,.14.54,0.67,0.67,0,0,0,.64.26,1,1,0,0,0,.64-0.21,0.68,0.68,0,0,0,.25-0.55V337H84.86V334.6h3.64V339a3.47,3.47,0,0,1-.92,2.61,3.59,3.59,0,0,1-2.6.89,3.69,3.69,0,0,1-2.74-.88,3.63,3.63,0,0,1-.86-2.64v-7a3.75,3.75,0,0,1,.93-2.66A3.49,3.49,0,0,1,85,328.32Z"/><path class="cls-4" d="M93.37,333.52l0.5-2.34,0.6-2.74h2.88l-2.7,8.26v5.66H91.93V336.7l-2.72-8.26h2.9l0.67,2.78,0.5,2.3h0.1Z"/></g></g></svg>